<svg width="25" height="25" viewBox="0 0 25 25" fill="none" xmlns="http://www.w3.org/2000/svg">
<path d="M12.1794 9.15979H16.1794C16.7294 9.15979 17.1794 8.70979 17.1794 8.15979C17.1794 7.60979 16.7294 7.15979 16.1794 7.15979H12.1794C11.6294 7.15979 11.1794 7.60979 11.1794 8.15979C11.1794 8.70979 11.6294 9.15979 12.1794 9.15979ZM12.1794 13.1598H16.1794C16.7294 13.1598 17.1794 12.7098 17.1794 12.1598C17.1794 11.6098 16.7294 11.1598 16.1794 11.1598H12.1794C11.6294 11.1598 11.1794 11.6098 11.1794 12.1598C11.1794 12.7098 11.6294 13.1598 12.1794 13.1598ZM12.1794 17.1598H16.1794C16.7294 17.1598 17.1794 16.7098 17.1794 16.1598C17.1794 15.6098 16.7294 15.1598 16.1794 15.1598H12.1794C11.6294 15.1598 11.1794 15.6098 11.1794 16.1598C11.1794 16.7098 11.6294 17.1598 12.1794 17.1598ZM7.17944 7.15979H9.17944V9.15979H7.17944V7.15979ZM7.17944 11.1598H9.17944V13.1598H7.17944V11.1598ZM7.17944 15.1598H9.17944V17.1598H7.17944V15.1598ZM20.1794 3.15979H4.17944C3.62944 3.15979 3.17944 3.60979 3.17944 4.15979V20.1598C3.17944 20.7098 3.62944 21.1598 4.17944 21.1598H20.1794C20.7294 21.1598 21.1794 20.7098 21.1794 20.1598V4.15979C21.1794 3.60979 20.7294 3.15979 20.1794 3.15979ZM19.1794 19.1598H5.17944V5.15979H19.1794V19.1598Z" fill="black"/>
</svg>
