<svg width="25" height="25" viewBox="0 0 25 25" fill="none" xmlns="http://www.w3.org/2000/svg">
<path d="M17.6844 3.73768C15.7344 3.73768 13.6344 4.13768 12.1844 5.23768C10.7344 4.13768 8.63445 3.73768 6.68445 3.73768C5.23445 3.73768 3.69445 3.95768 2.40445 4.52768C1.67445 4.85768 1.18445 5.56768 1.18445 6.37768V17.6577C1.18445 18.9577 2.40445 19.9177 3.66445 19.5977C4.64445 19.3477 5.68445 19.2377 6.68445 19.2377C8.24445 19.2377 9.90445 19.4977 11.2444 20.1577C11.8444 20.4577 12.5244 20.4577 13.1144 20.1577C14.4544 19.4877 16.1144 19.2377 17.6744 19.2377C18.6744 19.2377 19.7144 19.3477 20.6944 19.5977C21.9544 19.9277 23.1744 18.9677 23.1744 17.6577V6.37768C23.1744 5.56768 22.6844 4.85768 21.9544 4.52768C20.6744 3.95768 19.1344 3.73768 17.6844 3.73768ZM21.1844 16.4677C21.1844 17.0977 20.6044 17.5577 19.9844 17.4477C19.2344 17.3077 18.4544 17.2477 17.6844 17.2477C15.9844 17.2477 13.5344 17.8977 12.1844 18.7477V7.23768C13.5344 6.38768 15.9844 5.73768 17.6844 5.73768C18.6044 5.73768 19.5144 5.82768 20.3844 6.01768C20.8444 6.11768 21.1844 6.52768 21.1844 6.99768V16.4677Z" fill="black"/>
<path d="M14.1644 10.2477C13.8444 10.2477 13.5544 10.0477 13.4544 9.72768C13.3244 9.33768 13.5444 8.90768 13.9344 8.78768C15.4744 8.28768 17.4644 8.12768 19.2944 8.33768C19.7044 8.38768 20.0044 8.75768 19.9544 9.16768C19.9044 9.57768 19.5344 9.87768 19.1244 9.82768C17.5044 9.63768 15.7344 9.78768 14.3944 10.2177C14.3144 10.2277 14.2344 10.2477 14.1644 10.2477Z" fill="black"/>
<path d="M14.1644 12.9077C13.8444 12.9077 13.5544 12.7077 13.4544 12.3877C13.3244 11.9977 13.5444 11.5677 13.9344 11.4477C15.4644 10.9477 17.4644 10.7877 19.2944 10.9977C19.7044 11.0477 20.0044 11.4177 19.9544 11.8277C19.9044 12.2377 19.5344 12.5377 19.1244 12.4877C17.5044 12.2977 15.7344 12.4477 14.3944 12.8777C14.3144 12.8977 14.2344 12.9077 14.1644 12.9077Z" fill="black"/>
<path d="M14.1644 15.5677C13.8444 15.5677 13.5544 15.3677 13.4544 15.0477C13.3244 14.6577 13.5444 14.2277 13.9344 14.1077C15.4644 13.6077 17.4644 13.4477 19.2944 13.6577C19.7044 13.7077 20.0044 14.0777 19.9544 14.4877C19.9044 14.8977 19.5344 15.1877 19.1244 15.1477C17.5044 14.9577 15.7344 15.1077 14.3944 15.5377C14.3144 15.5577 14.2344 15.5677 14.1644 15.5677Z" fill="black"/>
</svg>
