<svg width="25" height="25" viewBox="0 0 25 25" fill="none" xmlns="http://www.w3.org/2000/svg">
<path d="M6.17944 20.5602C7.27944 20.5602 8.17944 19.6602 8.17944 18.5602V11.5602C8.17944 10.4602 7.27944 9.56018 6.17944 9.56018C5.07944 9.56018 4.17944 10.4602 4.17944 11.5602V18.5602C4.17944 19.6602 5.07944 20.5602 6.17944 20.5602Z" fill="black"/>
<path d="M16.1794 15.5602V18.5602C16.1794 19.6602 17.0794 20.5602 18.1794 20.5602C19.2794 20.5602 20.1794 19.6602 20.1794 18.5602V15.5602C20.1794 14.4602 19.2794 13.5602 18.1794 13.5602C17.0794 13.5602 16.1794 14.4602 16.1794 15.5602Z" fill="black"/>
<path d="M12.1794 20.5602C13.2794 20.5602 14.1794 19.6602 14.1794 18.5602V6.56018C14.1794 5.46018 13.2794 4.56018 12.1794 4.56018C11.0794 4.56018 10.1794 5.46018 10.1794 6.56018V18.5602C10.1794 19.6602 11.0794 20.5602 12.1794 20.5602Z" fill="black"/>
</svg>
