<svg width="25" height="25" viewBox="0 0 25 25" fill="none" xmlns="http://www.w3.org/2000/svg">
<path d="M21.1794 2.71C21.0494 2.71 20.9194 2.76 20.8294 2.86L20.0394 3.65C19.8394 3.85 19.5294 3.85 19.3294 3.65L18.5394 2.86C18.3394 2.66 18.0294 2.66 17.8294 2.86L17.0394 3.65C16.8394 3.85 16.5294 3.85 16.3294 3.65L15.5394 2.86C15.3394 2.66 15.0294 2.66 14.8294 2.86L14.0394 3.65C13.8394 3.85 13.5294 3.85 13.3294 3.65L12.5394 2.86C12.3394 2.66 12.0294 2.66 11.8294 2.86L11.0394 3.65C10.8394 3.85 10.5294 3.85 10.3294 3.65L9.52944 2.85C9.32944 2.65 9.01944 2.65 8.81944 2.85L8.02944 3.65C7.82944 3.85 7.51944 3.85 7.31944 3.65L6.52944 2.85C6.32944 2.65 6.01944 2.65 5.81944 2.85L5.02944 3.65C4.82944 3.85 4.51944 3.85 4.31944 3.65L3.52944 2.85C3.43944 2.76 3.30944 2.71 3.17944 2.71V22.3C3.30944 22.3 3.43944 22.25 3.52944 22.15L4.31944 21.36C4.51944 21.16 4.82944 21.16 5.02944 21.36L5.81944 22.15C6.01944 22.35 6.32944 22.35 6.52944 22.15L7.31944 21.36C7.51944 21.16 7.82944 21.16 8.02944 21.36L8.81944 22.15C9.01944 22.35 9.32944 22.35 9.52944 22.15L10.3194 21.36C10.5194 21.16 10.8294 21.16 11.0294 21.36L11.8194 22.15C12.0194 22.35 12.3294 22.35 12.5294 22.15L13.3194 21.36C13.5194 21.16 13.8294 21.16 14.0294 21.36L14.8194 22.15C15.0194 22.35 15.3294 22.35 15.5294 22.15L16.3194 21.36C16.5194 21.16 16.8294 21.16 17.0294 21.36L17.8194 22.15C18.0194 22.35 18.3294 22.35 18.5294 22.15L19.3194 21.36C19.5194 21.16 19.8294 21.16 20.0294 21.36L20.8194 22.15C20.9194 22.25 21.0494 22.3 21.1694 22.3V2.71H21.1794ZM17.1794 17.5H7.17944C6.62944 17.5 6.17944 17.05 6.17944 16.5C6.17944 15.95 6.62944 15.5 7.17944 15.5H17.1794C17.7294 15.5 18.1794 15.95 18.1794 16.5C18.1794 17.05 17.7294 17.5 17.1794 17.5ZM17.1794 13.5H7.17944C6.62944 13.5 6.17944 13.05 6.17944 12.5C6.17944 11.95 6.62944 11.5 7.17944 11.5H17.1794C17.7294 11.5 18.1794 11.95 18.1794 12.5C18.1794 13.05 17.7294 13.5 17.1794 13.5ZM17.1794 9.5H7.17944C6.62944 9.5 6.17944 9.05 6.17944 8.5C6.17944 7.95 6.62944 7.5 7.17944 7.5H17.1794C17.7294 7.5 18.1794 7.95 18.1794 8.5C18.1794 9.05 17.7294 9.5 17.1794 9.5Z" fill="black"/>
</svg>
