<svg width="12" height="13" viewBox="0 0 12 13" fill="none" xmlns="http://www.w3.org/2000/svg">
<g clip-path="url(#clip0_1513_60321)">
<rect width="12" height="12" transform="translate(0 0.899994)" fill="white" fill-opacity="0.01"/>
<g clip-path="url(#clip1_1513_60321)">
<path fill-rule="evenodd" clip-rule="evenodd" d="M7.49966 10.2742C7.49966 10.3736 7.46016 10.469 7.38983 10.5393C7.3195 10.6097 7.22412 10.6492 7.12466 10.6492H1.12466C1.02521 10.6492 0.929825 10.6097 0.859499 10.5393C0.789173 10.469 0.749664 10.3736 0.749664 10.2742V3.52417C0.749664 3.42471 0.789173 3.32933 0.859499 3.259C0.929825 3.18868 1.02521 3.14917 1.12466 3.14917H7.12466C7.22412 3.14917 7.3195 3.18868 7.38983 3.259C7.46016 3.32933 7.49966 3.42471 7.49966 3.52417V5.02417C7.49966 5.12363 7.53917 5.21901 7.6095 5.28933C7.67982 5.35966 7.77521 5.39917 7.87466 5.39917C7.97412 5.39917 8.0695 5.35966 8.13983 5.28933C8.21016 5.21901 8.24966 5.12363 8.24966 5.02417V3.52417C8.24966 3.2258 8.13114 2.93965 7.92016 2.72867C7.70918 2.5177 7.42303 2.39917 7.12466 2.39917H1.12466C0.826296 2.39917 0.540148 2.5177 0.329169 2.72867C0.118191 2.93965 -0.000335693 3.2258 -0.000335693 3.52417V10.2742C-0.000335693 10.5725 0.118191 10.8587 0.329169 11.0697C0.540148 11.2806 0.826296 11.3992 1.12466 11.3992H7.12466C7.42303 11.3992 7.70918 11.2806 7.92016 11.0697C8.13114 10.8587 8.24966 10.5725 8.24966 10.2742V8.77417C8.24966 8.67471 8.21016 8.57933 8.13983 8.509C8.0695 8.43868 7.97412 8.39917 7.87466 8.39917C7.77521 8.39917 7.67982 8.43868 7.6095 8.509C7.53917 8.57933 7.49966 8.67471 7.49966 8.77417V10.2742Z" fill="#E63756"/>
<path fill-rule="evenodd" clip-rule="evenodd" d="M11.8902 7.16467C11.9251 7.12984 11.9528 7.08845 11.9717 7.04289C11.9906 6.99734 12.0003 6.9485 12.0003 6.89917C12.0003 6.84984 11.9906 6.801 11.9717 6.75544C11.9528 6.70989 11.9251 6.6685 11.8902 6.63367L9.64016 4.38367C9.56975 4.31325 9.47425 4.2737 9.37466 4.2737C9.27508 4.2737 9.17958 4.31325 9.10916 4.38367C9.03875 4.45408 8.99919 4.54959 8.99919 4.64917C8.99919 4.74875 9.03875 4.84425 9.10916 4.91467L10.7194 6.52417H4.12466C4.02521 6.52417 3.92983 6.56368 3.8595 6.63401C3.78917 6.70433 3.74966 6.79971 3.74966 6.89917C3.74966 6.99863 3.78917 7.09401 3.8595 7.16434C3.92983 7.23466 4.02521 7.27417 4.12466 7.27417H10.7194L9.10916 8.88367C9.03875 8.95408 8.99919 9.04959 8.99919 9.14917C8.99919 9.24875 9.03875 9.34425 9.10916 9.41467C9.17958 9.48509 9.27508 9.52464 9.37466 9.52464C9.47425 9.52464 9.56975 9.48509 9.64016 9.41467L11.8902 7.16467Z" fill="#E63756"/>
</g>
</g>
<defs>
<clipPath id="clip0_1513_60321">
<rect width="12" height="12" fill="white" transform="translate(0 0.899994)"/>
</clipPath>
<clipPath id="clip1_1513_60321">
<rect width="12" height="12" fill="white" transform="translate(0 0.899994)"/>
</clipPath>
</defs>
</svg>
