<svg width="25" height="25" viewBox="0 0 25 25" fill="none" xmlns="http://www.w3.org/2000/svg">
<path d="M14.1132 10.4398C14.1132 10.9898 13.6632 11.4398 13.1132 11.4398H4.11319C3.56319 11.4398 3.11319 10.9898 3.11319 10.4398C3.11319 9.88982 3.56319 9.43982 4.11319 9.43982H13.1132C13.6632 9.43982 14.1132 9.88982 14.1132 10.4398ZM3.11319 6.43982C3.11319 6.98982 3.56319 7.43982 4.11319 7.43982H13.1132C13.6632 7.43982 14.1132 6.98982 14.1132 6.43982C14.1132 5.88982 13.6632 5.43982 13.1132 5.43982H4.11319C3.56319 5.43982 3.11319 5.88982 3.11319 6.43982ZM10.1132 14.4398C10.1132 13.8898 9.66319 13.4398 9.11319 13.4398H4.11319C3.56319 13.4398 3.11319 13.8898 3.11319 14.4398C3.11319 14.9898 3.56319 15.4398 4.11319 15.4398H9.11319C9.66319 15.4398 10.1132 14.9898 10.1132 14.4398ZM18.1232 12.3098L18.8332 11.5998C19.2232 11.2098 19.8532 11.2098 20.2432 11.5998L20.9532 12.3098C21.3432 12.6998 21.3432 13.3298 20.9532 13.7198L20.2432 14.4298L18.1232 12.3098ZM17.4132 13.0198L12.2532 18.1798C12.1632 18.2698 12.1132 18.3898 12.1132 18.5298V19.9398C12.1132 20.2198 12.3332 20.4398 12.6132 20.4398H14.0232C14.1532 20.4398 14.2832 20.3898 14.3732 20.2898L19.5332 15.1298L17.4132 13.0198Z" fill="black"/>
</svg>
