<svg width="25" height="25" viewBox="0 0 25 25" fill="none" xmlns="http://www.w3.org/2000/svg">
<path d="M19.4696 17.76L18.1796 16.47V11.47C18.1796 8.39997 16.5396 5.82997 13.6796 5.14997V4.46997C13.6796 3.63997 13.0096 2.96997 12.1796 2.96997C11.3496 2.96997 10.6796 3.63997 10.6796 4.46997V5.14997C7.80962 5.82997 6.17962 8.38997 6.17962 11.47V16.47L4.88962 17.76C4.25962 18.39 4.69962 19.47 5.58962 19.47H18.7596C19.6596 19.47 20.0996 18.39 19.4696 17.76ZM16.1796 17.47H8.17962V11.47C8.17962 8.98997 9.68962 6.96997 12.1796 6.96997C14.6696 6.96997 16.1796 8.98997 16.1796 11.47V17.47ZM12.1796 22.47C13.2796 22.47 14.1796 21.57 14.1796 20.47H10.1796C10.1796 21.57 11.0696 22.47 12.1796 22.47Z" fill="black"/>
</svg>
