<svg width="25" height="25" viewBox="0 0 25 25" fill="none" xmlns="http://www.w3.org/2000/svg">
<path d="M9.67944 6.78003V9.78003H6.67944V6.78003H9.67944ZM11.1794 5.28003H5.17944V11.28H11.1794V5.28003ZM9.67944 14.78V17.78H6.67944V14.78H9.67944ZM11.1794 13.28H5.17944V19.28H11.1794V13.28ZM17.6794 6.78003V9.78003H14.6794V6.78003H17.6794ZM19.1794 5.28003H13.1794V11.28H19.1794V5.28003ZM13.1794 13.28H14.6794V14.78H13.1794V13.28ZM14.6794 14.78H16.1794V16.28H14.6794V14.78ZM16.1794 13.28H17.6794V14.78H16.1794V13.28ZM13.1794 16.28H14.6794V17.78H13.1794V16.28ZM14.6794 17.78H16.1794V19.28H14.6794V17.78ZM16.1794 16.28H17.6794V17.78H16.1794V16.28ZM17.6794 14.78H19.1794V16.28H17.6794V14.78ZM17.6794 17.78H19.1794V19.28H17.6794V17.78ZM21.1794 7.28003C20.6294 7.28003 20.1794 6.83003 20.1794 6.28003V4.28003H18.1794C17.6294 4.28003 17.1794 3.83003 17.1794 3.28003C17.1794 2.73003 17.6294 2.28003 18.1794 2.28003H21.1794C21.7294 2.28003 22.1794 2.73003 22.1794 3.28003V6.28003C22.1794 6.83003 21.7294 7.28003 21.1794 7.28003ZM22.1794 21.28V18.28C22.1794 17.73 21.7294 17.28 21.1794 17.28C20.6294 17.28 20.1794 17.73 20.1794 18.28V20.28H18.1794C17.6294 20.28 17.1794 20.73 17.1794 21.28C17.1794 21.83 17.6294 22.28 18.1794 22.28H21.1794C21.7294 22.28 22.1794 21.83 22.1794 21.28ZM3.17944 22.28H6.17944C6.72944 22.28 7.17944 21.83 7.17944 21.28C7.17944 20.73 6.72944 20.28 6.17944 20.28H4.17944V18.28C4.17944 17.73 3.72944 17.28 3.17944 17.28C2.62944 17.28 2.17944 17.73 2.17944 18.28V21.28C2.17944 21.83 2.62944 22.28 3.17944 22.28ZM2.17944 3.28003V6.28003C2.17944 6.83003 2.62944 7.28003 3.17944 7.28003C3.72944 7.28003 4.17944 6.83003 4.17944 6.28003V4.28003H6.17944C6.72944 4.28003 7.17944 3.83003 7.17944 3.28003C7.17944 2.73003 6.72944 2.28003 6.17944 2.28003H3.17944C2.62944 2.28003 2.17944 2.73003 2.17944 3.28003Z" fill="black"/>
</svg>
