<svg width="12" height="13" viewBox="0 0 12 13" fill="none" xmlns="http://www.w3.org/2000/svg">
<g clip-path="url(#clip0_1513_60370)">
<rect width="12" height="12" transform="translate(0 0.399994)" fill="white" fill-opacity="0.01"/>
<g clip-path="url(#clip1_1513_60370)">
<path d="M-0.000335466 6.39917C-0.000592674 5.73855 0.217212 5.09632 0.619276 4.57215C1.02134 4.04797 1.58518 3.67116 2.22329 3.5002C2.86141 3.32924 3.53811 3.37369 4.14838 3.62664C4.75865 3.87959 5.26836 4.32691 5.59841 4.89917H10.4997C10.5489 4.89908 10.5978 4.90871 10.6433 4.9275C10.6889 4.94629 10.7303 4.97387 10.7652 5.00867L11.8902 6.13367C11.9251 6.16851 11.9528 6.20989 11.9717 6.25545C11.9906 6.30101 12.0003 6.34985 12.0003 6.39917C12.0003 6.4485 11.9906 6.49734 11.9717 6.5429C11.9528 6.58846 11.9251 6.62984 11.8902 6.66467L10.7652 7.78967C10.7303 7.82459 10.6889 7.8523 10.6434 7.87121C10.5978 7.89011 10.549 7.89984 10.4997 7.89984C10.4503 7.89984 10.4015 7.89011 10.3559 7.87121C10.3104 7.8523 10.269 7.82459 10.2342 7.78967L9.74966 7.30442L9.26516 7.78967C9.23033 7.82459 9.18895 7.8523 9.14339 7.87121C9.09783 7.89011 9.04899 7.89984 8.99966 7.89984C8.95034 7.89984 8.9015 7.89011 8.85594 7.87121C8.81038 7.8523 8.769 7.82459 8.73416 7.78967L8.24966 7.30442L7.76516 7.78967C7.73033 7.82459 7.68895 7.8523 7.64339 7.87121C7.59783 7.89011 7.54899 7.89984 7.49966 7.89984C7.45034 7.89984 7.4015 7.89011 7.35594 7.87121C7.31038 7.8523 7.269 7.82459 7.23416 7.78967L6.74966 7.30442L6.26516 7.78967C6.23027 7.82447 6.18887 7.85206 6.14331 7.87085C6.09776 7.88963 6.04894 7.89926 5.99966 7.89917H5.59841C5.26836 8.47143 4.75865 8.91875 4.14838 9.1717C3.53811 9.42466 2.86141 9.4691 2.22329 9.29814C1.58518 9.12718 1.02134 8.75037 0.619276 8.2262C0.217212 7.70202 -0.000592674 7.05979 -0.000335466 6.39917ZM2.99966 4.14917C2.59702 4.14932 2.20179 4.25752 1.85522 4.46248C1.50864 4.66743 1.22341 4.96164 1.02929 5.31439C0.835161 5.66715 0.739254 6.06554 0.751571 6.468C0.763887 6.87045 0.883975 7.26223 1.09931 7.60246C1.31464 7.94269 1.61732 8.2189 1.97579 8.40228C2.33425 8.58565 2.73535 8.66948 3.13725 8.64501C3.53915 8.62054 3.92712 8.48868 4.26069 8.26316C4.59426 8.03765 4.8612 7.72676 5.03366 7.36292C5.06411 7.29899 5.11204 7.24499 5.1719 7.20716C5.23176 7.16934 5.3011 7.14923 5.37191 7.14917H5.84441L6.48416 6.50867C6.519 6.47375 6.56038 6.44604 6.60594 6.42714C6.6515 6.40823 6.70034 6.3985 6.74966 6.3985C6.79899 6.3985 6.84783 6.40823 6.89339 6.42714C6.93895 6.44604 6.98033 6.47375 7.01516 6.50867L7.49966 6.99392L7.98416 6.50867C8.019 6.47375 8.06038 6.44604 8.10594 6.42714C8.1515 6.40823 8.20034 6.3985 8.24966 6.3985C8.29899 6.3985 8.34783 6.40823 8.39339 6.42714C8.43895 6.44604 8.48033 6.47375 8.51516 6.50867L8.99966 6.99392L9.48416 6.50867C9.519 6.47375 9.56038 6.44604 9.60594 6.42714C9.6515 6.40823 9.70034 6.3985 9.74966 6.3985C9.79899 6.3985 9.84783 6.40823 9.89339 6.42714C9.93895 6.44604 9.98033 6.47375 10.0152 6.50867L10.4997 6.99392L11.0944 6.39917L10.3444 5.64917H5.37191C5.3011 5.64911 5.23176 5.62901 5.1719 5.59118C5.11204 5.55335 5.06411 5.49935 5.03366 5.43542C4.85118 5.05045 4.56316 4.72521 4.20308 4.4975C3.84301 4.2698 3.42569 4.14901 2.99966 4.14917Z" fill="#5D6E82"/>
<path d="M2.99966 6.39917C2.99966 6.59808 2.92065 6.78885 2.77999 6.9295C2.63934 7.07015 2.44858 7.14917 2.24966 7.14917C2.05075 7.14917 1.85999 7.07015 1.71933 6.9295C1.57868 6.78885 1.49966 6.59808 1.49966 6.39917C1.49966 6.20026 1.57868 6.00949 1.71933 5.86884C1.85999 5.72819 2.05075 5.64917 2.24966 5.64917C2.44858 5.64917 2.63934 5.72819 2.77999 5.86884C2.92065 6.00949 2.99966 6.20026 2.99966 6.39917Z" fill="#5D6E82"/>
</g>
</g>
<defs>
<clipPath id="clip0_1513_60370">
<rect width="12" height="12" fill="white" transform="translate(0 0.399994)"/>
</clipPath>
<clipPath id="clip1_1513_60370">
<rect width="12" height="12" fill="white" transform="translate(0 0.399994)"/>
</clipPath>
</defs>
</svg>
