<svg width="25" height="25" viewBox="0 0 25 25" fill="none" xmlns="http://www.w3.org/2000/svg">
<path d="M14.3494 3.56018H5.17944C4.07944 3.56018 3.17944 4.46018 3.17944 5.56018V19.5602C3.17944 20.6602 4.07944 21.5602 5.17944 21.5602H19.1794C20.2794 21.5602 21.1794 20.6602 21.1794 19.5602V10.3902C21.1794 9.86018 20.9694 9.35018 20.5894 8.98018L15.7594 4.15018C15.3894 3.77018 14.8794 3.56018 14.3494 3.56018ZM8.17944 15.5602H16.1794C16.7294 15.5602 17.1794 16.0102 17.1794 16.5602C17.1794 17.1102 16.7294 17.5602 16.1794 17.5602H8.17944C7.62944 17.5602 7.17944 17.1102 7.17944 16.5602C7.17944 16.0102 7.62944 15.5602 8.17944 15.5602ZM8.17944 11.5602H16.1794C16.7294 11.5602 17.1794 12.0102 17.1794 12.5602C17.1794 13.1102 16.7294 13.5602 16.1794 13.5602H8.17944C7.62944 13.5602 7.17944 13.1102 7.17944 12.5602C7.17944 12.0102 7.62944 11.5602 8.17944 11.5602ZM8.17944 7.56018H13.1794C13.7294 7.56018 14.1794 8.01018 14.1794 8.56018C14.1794 9.11018 13.7294 9.56018 13.1794 9.56018H8.17944C7.62944 9.56018 7.17944 9.11018 7.17944 8.56018C7.17944 8.01018 7.62944 7.56018 8.17944 7.56018Z" fill="black"/>
</svg>
