<svg width="12" height="13" viewBox="0 0 12 13" fill="none" xmlns="http://www.w3.org/2000/svg">
<g clip-path="url(#clip0_1513_60382)">
<rect width="12" height="12" transform="translate(0 0.399994)" fill="white" fill-opacity="0.01"/>
<path d="M5.99966 6.39917C6.5964 6.39917 7.1687 6.16212 7.59065 5.74016C8.01261 5.31821 8.24966 4.74591 8.24966 4.14917C8.24966 3.55243 8.01261 2.98014 7.59065 2.55818C7.1687 2.13622 6.5964 1.89917 5.99966 1.89917C5.40293 1.89917 4.83063 2.13622 4.40867 2.55818C3.98672 2.98014 3.74966 3.55243 3.74966 4.14917C3.74966 4.74591 3.98672 5.31821 4.40867 5.74016C4.83063 6.16212 5.40293 6.39917 5.99966 6.39917ZM7.49966 4.14917C7.49966 4.547 7.34163 4.92853 7.06032 5.20983C6.77902 5.49114 6.39749 5.64917 5.99966 5.64917C5.60184 5.64917 5.22031 5.49114 4.939 5.20983C4.6577 4.92853 4.49966 4.547 4.49966 4.14917C4.49966 3.75135 4.6577 3.36982 4.939 3.08851C5.22031 2.80721 5.60184 2.64917 5.99966 2.64917C6.39749 2.64917 6.77902 2.80721 7.06032 3.08851C7.34163 3.36982 7.49966 3.75135 7.49966 4.14917ZM10.4997 10.1492C10.4997 10.8992 9.74966 10.8992 9.74966 10.8992H2.24966C2.24966 10.8992 1.49966 10.8992 1.49966 10.1492C1.49966 9.39917 2.24966 7.14917 5.99966 7.14917C9.74966 7.14917 10.4997 9.39917 10.4997 10.1492ZM9.74966 10.1462C9.74891 9.96167 9.63416 9.40667 9.12566 8.89817C8.63666 8.40917 7.71641 7.89917 5.99966 7.89917C4.28216 7.89917 3.36266 8.40917 2.87366 8.89817C2.36516 9.40667 2.25116 9.96167 2.24966 10.1462H9.74966Z" fill="#5D6E82"/>
</g>
<defs>
<clipPath id="clip0_1513_60382">
<rect width="12" height="12" fill="white" transform="translate(0 0.399994)"/>
</clipPath>
</defs>
</svg>
