<svg width="25" height="25" viewBox="0 0 25 25" fill="none" xmlns="http://www.w3.org/2000/svg">
<path d="M3.17944 6.56018C2.62944 6.56018 2.17944 7.01018 2.17944 7.56018V20.5602C2.17944 21.6602 3.07944 22.5602 4.17944 22.5602H17.1794C17.7294 22.5602 18.1794 22.1102 18.1794 21.5602C18.1794 21.0102 17.7294 20.5602 17.1794 20.5602H5.17944C4.62944 20.5602 4.17944 20.1102 4.17944 19.5602V7.56018C4.17944 7.01018 3.72944 6.56018 3.17944 6.56018ZM20.1794 2.56018H8.17944C7.07944 2.56018 6.17944 3.46018 6.17944 4.56018V16.5602C6.17944 17.6602 7.07944 18.5602 8.17944 18.5602H20.1794C21.2794 18.5602 22.1794 17.6602 22.1794 16.5602V4.56018C22.1794 3.46018 21.2794 2.56018 20.1794 2.56018ZM18.1794 11.5602H10.1794C9.62944 11.5602 9.17944 11.1102 9.17944 10.5602C9.17944 10.0102 9.62944 9.56018 10.1794 9.56018H18.1794C18.7294 9.56018 19.1794 10.0102 19.1794 10.5602C19.1794 11.1102 18.7294 11.5602 18.1794 11.5602ZM14.1794 15.5602H10.1794C9.62944 15.5602 9.17944 15.1102 9.17944 14.5602C9.17944 14.0102 9.62944 13.5602 10.1794 13.5602H14.1794C14.7294 13.5602 15.1794 14.0102 15.1794 14.5602C15.1794 15.1102 14.7294 15.5602 14.1794 15.5602ZM18.1794 7.56018H10.1794C9.62944 7.56018 9.17944 7.11018 9.17944 6.56018C9.17944 6.01018 9.62944 5.56018 10.1794 5.56018H18.1794C18.7294 5.56018 19.1794 6.01018 19.1794 6.56018C19.1794 7.11018 18.7294 7.56018 18.1794 7.56018Z" fill="black"/>
</svg>
