<svg width="25" height="25" viewBox="0 0 25 25" fill="none" xmlns="http://www.w3.org/2000/svg">
<path fill-rule="evenodd" clip-rule="evenodd" d="M16.8494 13.8601C18.2194 14.7901 19.1794 16.0501 19.1794 17.7301V20.7301H22.1794C22.7294 20.7301 23.1794 20.2801 23.1794 19.7301V17.7301C23.1794 15.5501 19.6094 14.2601 16.8494 13.8601Z" fill="black"/>
<path d="M9.17944 12.7301C11.3886 12.7301 13.1794 10.9392 13.1794 8.7301C13.1794 6.52096 11.3886 4.7301 9.17944 4.7301C6.9703 4.7301 5.17944 6.52096 5.17944 8.7301C5.17944 10.9392 6.9703 12.7301 9.17944 12.7301Z" fill="black"/>
<path fill-rule="evenodd" clip-rule="evenodd" d="M15.1794 12.7301C17.3894 12.7301 19.1794 10.9401 19.1794 8.7301C19.1794 6.5201 17.3894 4.7301 15.1794 4.7301C14.7094 4.7301 14.2694 4.8301 13.8494 4.9701C14.6794 6.0001 15.1794 7.3101 15.1794 8.7301C15.1794 10.1501 14.6794 11.4601 13.8494 12.4901C14.2694 12.6301 14.7094 12.7301 15.1794 12.7301Z" fill="black"/>
<path fill-rule="evenodd" clip-rule="evenodd" d="M9.17944 13.7301C6.50944 13.7301 1.17944 15.0701 1.17944 17.7301V19.7301C1.17944 20.2801 1.62944 20.7301 2.17944 20.7301H16.1794C16.7294 20.7301 17.1794 20.2801 17.1794 19.7301V17.7301C17.1794 15.0701 11.8494 13.7301 9.17944 13.7301Z" fill="black"/>
</svg>
